<svg height="512" viewBox="0 0 512 512" width="512" xmlns="http://www.w3.org/2000/svg"><g id="Filled_outline" data-name="Filled outline"><path d="m144 24h128v40h-128z" fill="#fec9a3"/><path d="m24 24 8 184-8 184 8 72 16 24h40l-16-112 24-168v-184" fill="#fec093"/><path d="m339.44 328a193.435 193.435 0 0 0 -9.75-21.54l-20.71-39.11a127.967 127.967 0 0 1 -11.05-90.93l5.14-17.69q2.115-7.3 3.74-14.73h-199.35q.6 3.405 1.31 6.78l5.36 25.64a127.967 127.967 0 0 1 -11.05 90.93l-20.71 39.11a192.178 192.178 0 0 0 -20.83 113.65l8.49 67.89h113.97v-80h48v80h110.03l8.49-67.89a192.016 192.016 0 0 0 -11.08-92.11z" fill="#fec9a3"/><path d="m331.2 96 44.8 112 72 96h40v-16a76.141 76.141 0 0 0 -13.763-43.662l-42.237-60.338-40-160h-64z" fill="#fec093"/><path d="m324 239.351h16v25.298h-16z" fill="#e0e0de" transform="matrix(.949 -.316 .316 .949 -62.652 117.919)"/><path d="m353.578 252h28.844v16h-28.844z" fill="#e0e0de" transform="matrix(.555 -.832 .832 .555 -52.463 421.972)"/><path d="m428 377.578h16v28.844h-16z" fill="#e0e0de" transform="matrix(.555 -.832 .832 .555 -132.013 537.331)"/><path d="m396 399.508h16v32.985h-16z" fill="#e0e0de" transform="matrix(.97 -.243 .243 .97 -88.832 110.405)"/><path d="m329.5 24h-58.684a77.674 77.674 0 0 1 -62.816 32 77.674 77.674 0 0 1 -62.816-32h-58.684a51.809 51.809 0 0 0 -14.5 36c0 21.644 13.191 44.172 32 52 .177 12.066 1.352 20.12 3.46 32h199.35c2.585-11.8 4.538-19.931 5.19-32 18.963-7.758 32-30.245 32-52a51.809 51.809 0 0 0 -14.5-36z" fill="#f59898"/><path d="m304 120h-144v-16h144a8 8 0 0 1 8 8 8 8 0 0 1 -8 8z" fill="#eb8484"/><path d="m128 104h16v16h-16z" fill="#eb8484"/><path d="m400 328h-32l25.367-50.733a24 24 0 0 1 21.466-13.267h49.167a24 24 0 0 1 24 24v48a16 16 0 0 1 -16 16h-48a16 16 0 0 1 -16-16v-24z" fill="#fec9a3"/><path d="m200 232h16v40h-16z" fill="#feb784"/><path d="m132 293.167h16v53.666h-16z" fill="#feb784" transform="matrix(.894 -.447 .447 .894 -128.328 96.393)"/><path d="m249.167 312h53.666v16h-53.666z" fill="#feb784" transform="matrix(.447 -.894 .894 .447 -133.648 423.754)"/><path d="m400 328-8.7 24-5.79 16-43.48 120h-110.03v-80h-48v80h-113.97l-8.49-67.89a192.016 192.016 0 0 1 11.08-92.11z" fill="#34507b"/><g fill="#2f486e"><path d="m391.3 352-5.79 16h-297.51v-16z"/><path d="m200 360h16v48h-16z"/><path d="m287.122 424h73.756v16.001h-73.756z" transform="matrix(.759 -.651 .651 .759 -203.142 314.861)"/><path d="m232 408a8 8 0 0 1 6-9.594l96.205-22.2 3.6 15.59-96.2 22.2a8 8 0 0 1 -9.605-5.996z"/><path d="m173.8 413.187-48.308-13.8 4.4-15.385 48.308 13.798a8 8 0 0 1 5.494 9.89 8 8 0 0 1 -9.894 5.497z"/></g><path d="m17.309 15.975h16v68.903h-16z" transform="matrix(.999 -.038 .038 .999 -1.898 .998)"/><path d="m200 232h16v40h-16z"/><path d="m359.62 408.32h-7.346l-5.481-6.394-56 48 10.414 12.148 56-48-4.929-5.75z"/><path d="m425.446 188.588 42.241 60.34 13.107-9.176-41.471-59.24-47.631-166.712-15.384 4.4 48 168a8.015 8.015 0 0 0 1.138 2.388z"/><path d="m324 239.351h16v25.298h-16z" transform="matrix(.949 -.316 .316 .949 -62.652 117.919)"/><path d="m353.578 252h28.844v16h-28.844z" transform="matrix(.555 -.832 .832 .555 -52.463 421.972)"/><path d="m428 377.578h16v28.844h-16z" transform="matrix(.555 -.832 .832 .555 -132.013 537.331)"/><path d="m396 399.508h16v32.985h-16z" transform="matrix(.97 -.243 .243 .97 -88.832 110.405)"/><path d="m208 64a85.945 85.945 0 0 0 69.285-35.294l-12.938-9.412a69.9 69.9 0 0 1 -56.347 28.706 69.9 69.9 0 0 1 -56.347-28.706l-12.938 9.412a85.945 85.945 0 0 0 69.285 35.294z"/><path d="m128 104h16v16h-16z"/><path d="m464 256h-42l-38.965-51.954-42.546-106.369a68.982 68.982 0 0 0 11.511-37.677 59.711 59.711 0 0 0 -16.726-41.541l-11.541 11.082a43.781 43.781 0 0 1 12.267 30.459c0 18.553-10.942 37.154-25.67 44h-150.33v16h143.26c-.671 5.413-1.656 10.35-2.885 16h-186.167a151.216 151.216 0 0 1 -2.208-24.118 8 8 0 0 0 -4.925-7.268c-15.436-6.424-27.075-25.603-27.075-44.614a43.781 43.781 0 0 1 12.267-30.459l-11.541-11.082a59.711 59.711 0 0 0 -16.726 41.541c0 20 9.555 39.679 24 51.533v95.9l-13.965 97.757a203.209 203.209 0 0 0 -8.89 19.96 200.707 200.707 0 0 0 -11.545 95.95l7.367 58.9h-8.686l-12.545-18.818-7.716-69.452 7.973-183.382q.014-.341 0-.681l-4.542-109.019-15.987.666 4.529 108.679-7.986 183.659a8.031 8.031 0 0 0 .042 1.231l8 72a7.99 7.99 0 0 0 1.3 3.555l16 24a8 8 0 0 0 6.651 3.562h136a8 8 0 0 0 8-8v-72h32v72a8 8 0 0 0 8 8h110.03a8 8 0 0 0 7.522-5.275l52.526-144.975a24.029 24.029 0 0 0 21.922 14.25h48a24.027 24.027 0 0 0 24-24v-48a32.036 32.036 0 0 0 -32-32zm-157.19-104a8 8 0 0 0 7.815-6.288l.569-2.59c2-9.065 3.631-16.494 4.457-25.905a53.328 53.328 0 0 0 8.966-6.134l39.955 99.888a8.028 8.028 0 0 0 1.028 1.829l33.935 45.247a31.831 31.831 0 0 0 -17.324 15.642l-23.155 46.311h-18.194c-2.43-5.885-5.14-11.679-8.1-17.284l-20.71-39.11a119.779 119.779 0 0 1 -10.4-85.1l3.178-10.939-15.361-4.467-3.221 11.085c-.028.1-.055.193-.079.291a135.767 135.767 0 0 0 11.741 96.615l20.707 39.109c1.695 3.2 3.3 6.481 4.809 9.8h-42.482l10.211-20.422-14.31-7.156-13.789 27.578h-118.112l-13.789-27.578-14.31 7.156 10.211 20.422h-46.412c1.334-2.93 2.731-5.828 4.2-8.661l21.3-40.245a135.758 135.758 0 0 0 11.779-96.461l-4.723-22.633zm-202.891 57.131a7.925 7.925 0 0 0 .081-1.131v-40.942l2.3 11c.021.1.045.2.07.3a119.78 119.78 0 0 1 -10.183 84.9zm232.501 270.869h-96.42v-65.636l97.8-22.564-3.6-15.59-103.11 23.79h-15.09v-32h161zm46.38-128h-294.8v16h112v32h-14.879l-54.921-15.692-4.4 15.384 50.2 14.343v65.965h-98.908l-7.614-60.883a184.686 184.686 0 0 1 8.746-83.117h310.369zm97.2-16a8.009 8.009 0 0 1 -8 8h-48a8.009 8.009 0 0 1 -8-8v-24a8 8 0 0 0 -15.155-3.578l-5.789 11.578h-14.112l19.578-39.155a15.912 15.912 0 0 1 14.311-8.845h49.167a16.019 16.019 0 0 1 16 16z"/></g></svg>