<svg id="Layer_1" height="512" viewBox="0 0 512 512" width="512" xmlns="http://www.w3.org/2000/svg" data-name="Layer 1"><path d="m337.3 328h-162.6a43.914 43.914 0 0 0 -43.7 43.95v95.05h250v-95.05a43.914 43.914 0 0 0 -43.7-43.95z" fill="#6994fe"/><path d="m316.12 350.69a19.541 19.541 0 0 1 11.62 6.41l.47.52a7.874 7.874 0 0 1 1.83 6.4l-1.29 8.62c-.29 1.93-2.31 2.71-3.53 1.36a20.492 20.492 0 0 0 -2.89-2.65 18.548 18.548 0 0 0 -11.91-3.94 18.251 18.251 0 0 0 -7.84 2.04 1.818 1.818 0 0 1 -.86.21 2.363 2.363 0 0 1 -2.07-2.87l1.29-8.63a7.081 7.081 0 0 1 3.56-5.31l.6-.31a18.089 18.089 0 0 1 11.02-1.86z" fill="#ffdb00"/><path d="m343.62 190.83 2.24.6 2.82 10.64a44.427 44.427 0 0 1 -19.14 48.89 39.307 39.307 0 0 1 -4.32-7.57 53.353 53.353 0 0 1 -3.25-9.96 69.6 69.6 0 0 0 3.22-20.99v-9.51a33.685 33.685 0 0 0 3.1-6.63 13.629 13.629 0 0 0 9.12-.41 13.415 13.415 0 0 0 6.21-5.06z" fill="#c2684f"/><path d="m325.22 243.39a39.307 39.307 0 0 0 4.32 7.57l-.93.57a42.261 42.261 0 0 1 -20 6 69.393 69.393 0 0 0 13.36-24.1 53.353 53.353 0 0 0 3.25 9.96z" fill="#9b503e"/><path d="m307.66 275.4c1.74-13.27 11.66-18.24 20.99-23.81l-.04-.06.93-.57a40.506 40.506 0 0 0 3.73 4.45c6.34 6.58 11.98 13.57 10.5 24.74-1.78 13.54-12.04 18.45-21.54 24.14-7.7-7.96-16.35-15.35-14.57-28.89z" fill="#c2684f"/><path d="m322.23 304.3c6.22 6.43 11.81 13.23 10.77 23.94-.03.31-.07.63-.11.95-1.49 11.27-8.84 16.56-16.74 21.3-6.4-6.62-12.14-13.64-10.66-24.9a23.2 23.2 0 0 1 5.29-12.31c3.1-3.72 7.2-6.43 11.45-8.98z" fill="#c2684f"/><path d="m322.37 382.8a16.438 16.438 0 0 0 6.62 9.61l4.96 3.43a23.688 23.688 0 0 1 8.75 27.76l-1.48 3.98-7.8 13.53-5.08 8.81a35.076 35.076 0 0 0 -18.32-25.39c-32.53-17.89-17.09-39.46-6.56-49.68a62.183 62.183 0 0 1 7-5.92l-.04-1.52a18.548 18.548 0 0 1 11.91 3.94l-.28.36c-.02.89-.04 1.77-.04 2.66q0 4.215.36 8.43z" fill="#c2684f"/><path d="m296.47 75.51c-15.52 40.27-54.21 63.39-87.9 76.33l-23.25 5.96v53.96a69.806 69.806 0 0 0 12.62 40.07 71.341 71.341 0 0 0 8.02 9.57 70.542 70.542 0 0 0 15.7 11.84 69.578 69.578 0 0 0 103.53-60.8v-9.51l2.22-31.12a11.591 11.591 0 0 1 9.11-1.43v-.01c-55.9-28.23-40.41-93.37-40.05-94.86z" fill="#ffd8b7"/><path d="m316.15 350.49-.03.19a18.089 18.089 0 0 0 -11.02 1.86l-.6.31a7.081 7.081 0 0 0 -3.56 5.31l-1.29 8.63a2.363 2.363 0 0 0 2.07 2.87 1.818 1.818 0 0 0 .86-.21 18.251 18.251 0 0 1 7.84-2.04l.04 1.52a62.183 62.183 0 0 0 -7 5.92l-47.46-26.09v-.65a65.423 65.423 0 0 0 9.37-.68 29.415 29.415 0 0 0 24.97-29.18v-17.29h1.04a29.472 29.472 0 0 1 19.4 12.32 23.2 23.2 0 0 0 -5.29 12.31c-1.48 11.26 4.26 18.28 10.66 24.9z" fill="#de3c44"/><path d="m221.66 318.24a29.408 29.408 0 0 0 24.97 29.19 65.423 65.423 0 0 0 9.37.68v.65l-54.62 30.03a4 4 0 0 1 -5.38-3.75v-45.01c0-.6.02-1.2.06-1.79a29.443 29.443 0 0 1 24.56-27.28h1.04z" fill="#de3c44"/><path d="m290.34 318.25a29.415 29.415 0 0 1 -24.97 29.18 64.9 64.9 0 0 1 -18.74 0 29.408 29.408 0 0 1 -24.97-29.19v-45a69.756 69.756 0 0 0 68.68-.48z" fill="#f2cbaf"/><path d="m264.11 45.12a96.5 96.5 0 0 0 -50.27 14.04c-29.25 17.77-46.24 49.87-45.9 83.61a96.319 96.319 0 0 0 .8 11.59l1.17 9.11-.09 30.08v13.21a50.186 50.186 0 0 0 28.12 45.07 69.806 69.806 0 0 1 -12.62-40.07v-52.218c4.876-1.381 10.052-2.979 15.45-4.862a33.852 33.852 0 0 1 7.77-2.83.037.037 0 0 1 .03-.01c33.69-12.94 72.38-36.06 87.9-76.33-.36 1.49-15.85 66.63 40.05 94.86v.01a10.931 10.931 0 0 1 3.51 1.61 13.737 13.737 0 0 1 4.22 4.64v-51.37a80.14 80.14 0 0 0 -80.14-80.14z" fill="#c2684f"/><path d="m344.25 176.63a13.635 13.635 0 0 1 -.63 14.2 13.415 13.415 0 0 1 -6.21 5.06 13.629 13.629 0 0 1 -9.12.41 34.355 34.355 0 0 0 -.88-24.49 11.591 11.591 0 0 1 9.11-1.43 10.931 10.931 0 0 1 3.51 1.61 13.737 13.737 0 0 1 4.22 4.64z" fill="#ffd8b7"/><path d="m169.82 193.55a13.678 13.678 0 0 1 1.18-21.58 11.517 11.517 0 0 1 13.52.45 34.411 34.411 0 0 0 -.74 23.52 13.621 13.621 0 0 1 -10.14-.05 13.392 13.392 0 0 1 -3.82-2.34z" fill="#ffd8b7"/><path d="m204.7 328h-30a43.914 43.914 0 0 0 -43.7 43.95v95.05h30v-95.05a43.914 43.914 0 0 1 43.7-43.95z" fill="#5682d8"/><path d="m208.57 151.84-23.25 5.96v53.96a69.806 69.806 0 0 0 12.62 40.07 71.341 71.341 0 0 0 8.02 9.57 70.542 70.542 0 0 0 15.7 11.84 69.826 69.826 0 0 0 48.933 7.17 69.612 69.612 0 0 1 -18.933-7.17 70.542 70.542 0 0 1 -15.7-11.84 71.341 71.341 0 0 1 -8.02-9.57 69.806 69.806 0 0 1 -12.62-40.07v-62.629q-3.399 1.422-6.75 2.709z" fill="#e0bea4"/><path d="m295.88 219.45a34.22 34.22 0 1 1 32.41-23.15 33.685 33.685 0 0 1 -3.1 6.63 34.254 34.254 0 0 1 -29.31 16.52z" fill="#cae6ee"/><path d="m208.57 151.84a34.247 34.247 0 1 1 -23.25 47.96 33.015 33.015 0 0 1 -1.54-3.86 34.222 34.222 0 0 1 16.99-41.26c2.55-.88 5.15-1.83 7.77-2.83a.037.037 0 0 1 .03-.01z" fill="#cae6ee"/><g fill="#20344c"><path d="m131 472.878h250a6 6 0 0 0 6-6v-94.932a49.753 49.753 0 0 0 -48.084-49.662c-.783-6.7-3.793-12.033-7.387-16.557 8.009-4.956 16.462-11.632 18.194-24.79 1.768-13.425-4.842-22.017-11.457-28.976a50.741 50.741 0 0 0 8.058-8.621 50.172 50.172 0 0 0 8.156-42.811l-2.819-10.635a6.044 6.044 0 0 0 -.5-1.269 19.309 19.309 0 0 0 .457-8.187 12.887 12.887 0 0 0 -1.618-5.146v-50.03a86.13 86.13 0 0 0 -86.015-86.14 102.564 102.564 0 0 0 -53.326 14.908c-29.537 17.948-47.541 49.826-48.688 84.2-3.069.845-6.146 1.619-9.269 2.3a6 6 0 1 0 2.577 11.722c2.36-.515 4.7-1.085 7.032-1.687.129 1.516.28 3.033.475 4.552l.467 3.632c-8.413 1.717-13.659 2.367-13.779 2.381a6 6 0 1 0 1.416 11.916c.47-.056 5.088-.623 12.471-2.058a19.517 19.517 0 0 0 -3.969 9.447 18.268 18.268 0 0 0 4.608 15.5v10.814a56.449 56.449 0 0 0 29.947 49.721 77.038 77.038 0 0 0 21.717 20.185v19.285a35.306 35.306 0 0 0 -24.81 26.3h-16.154a49.76 49.76 0 0 0 -49.7 49.7v94.932a6 6 0 0 0 6 6.006zm206.075-51.372-1.307 3.515-6.109 10.6a41.43 41.43 0 0 0 -16.89-16.431c-10.459-5.781-15.951-12.164-16.324-18.973-.418-7.647 5.559-15.531 10.99-20.879.131-.117.259-.241.381-.371a53.53 53.53 0 0 1 6.081-5.121l-.082-.117a12.489 12.489 0 0 1 2.2.767c0 2.943.131 5.9.38 8.813a5.93 5.93 0 0 0 .15.916 22.383 22.383 0 0 0 9.033 13.118l4.966 3.429a17.682 17.682 0 0 1 6.531 20.734zm-40.739-103.263v-9.543a23.159 23.159 0 0 1 6.945 4.9 30.707 30.707 0 0 0 1.44 32.563 24.789 24.789 0 0 0 -2.364 1.045l-.593.305a13.046 13.046 0 0 0 -6.764 9.761l-.838 5.621-20.732-11.4a35.709 35.709 0 0 0 22.906-33.252zm-31.836 23.257a58.685 58.685 0 0 1 -17.009 0 23.5 23.5 0 0 1 -19.831-23.252v-35.548a75.617 75.617 0 0 0 56.672-.355v35.9a23.5 23.5 0 0 1 -19.832 23.255zm48.374-38.221c-.558.413-1.107.845-1.653 1.287a35.035 35.035 0 0 0 -14.889-8.616v-19.879c2.021-1.3 3.985-2.681 5.871-4.161-.188.872-.358 1.772-.482 2.707-1.728 13.159 4.703 21.798 11.157 28.657zm11.184 32.977.3-2.3a6 6 0 0 0 -11.9-1.555l-.293 2.242a17.494 17.494 0 0 1 -.731-8.271c.882-6.706 4.281-10.536 9.765-14.3 4.323 5.055 6.615 9.634 5.734 16.339a17.5 17.5 0 0 1 -2.871 7.84zm.041 26.879-.294 1.972a24.708 24.708 0 0 0 -12.909-3.686 23.982 23.982 0 0 0 -4.445.416l.416-2.788a1.453 1.453 0 0 1 .38-.859l.6-.307c5.259-2.7 11.179-1.46 15.448 3.249l.474.521a1.959 1.959 0 0 1 .331 1.477zm13.874-28.87a37.739 37.739 0 0 1 37.027 37.681v88.932h-36.531a61.893 61.893 0 0 0 2.861-18.665 5.983 5.983 0 0 0 -.395-2.127l5.479-9.509a5.89 5.89 0 0 0 .425-.9l1.482-3.985a29.671 29.671 0 0 0 -10.959-34.792l-4.965-3.429a10.388 10.388 0 0 1 -4.087-5.687c-.035-.425-.057-.853-.085-1.28.238-.049.478-.089.715-.16a8.264 8.264 0 0 0 5.745-6.813l1.287-8.63a13.915 13.915 0 0 0 -3.313-11.308l-.474-.524a27.058 27.058 0 0 0 -4.063-3.641 29.808 29.808 0 0 0 9.855-15.168zm-.151-54.89c-.772 5.87-3.48 9.534-7.819 12.882l.955-6.7a6 6 0 0 0 -11.881-1.691l-1.012 7.1c-3.484-4.467-5.249-8.768-4.459-14.776 1.12-8.509 6.284-12.388 14.628-17.376.237.255.466.515.708.766 6.707 6.945 9.92 11.92 8.884 19.79zm-41.941-122.42a28.247 28.247 0 1 1 -28.247 28.245 28.279 28.279 0 0 1 28.247-28.245zm-39.787 22.16a40.371 40.371 0 0 0 -24.177-31.008c24.315-12.208 43.365-27.583 56.446-45.5.157 3.335.467 6.844 1 10.471a86.528 86.528 0 0 0 11.117 32.144 40.185 40.185 0 0 0 -44.382 33.89zm86.781 24.49a38.23 38.23 0 0 1 -6.213 32.619 38.789 38.789 0 0 1 -5.4 5.932c-.18-.377-.358-.756-.523-1.14a49.793 49.793 0 0 1 -2.662-7.454 75.321 75.321 0 0 0 2.923-21.121v-7.952c0-.525.659-1.059.924-1.6.071 0 .19.007.261.007a20.034 20.034 0 0 0 7.432-1.441 19.262 19.262 0 0 0 2.375-1.161zm-7.046-13.588a39.639 39.639 0 0 0 -.725-13.8 5.183 5.183 0 0 1 1.519.7 7.654 7.654 0 0 1 -.794 13.1zm-69.429-118.348a6 6 0 0 0 -8.4 1.2 179.617 179.617 0 0 1 -83.775 61.522 89.755 89.755 0 0 1 89.756-83.269 74.116 74.116 0 0 1 74.019 74.14v39.23c-21-10.9-33.21-28.6-36.836-52.727a97.95 97.95 0 0 1 1.136-34.765 6.006 6.006 0 0 0 -11.418-3.658c-14.664 38.08-52.011 59.868-80.759 71.448-1.138.458-2.27.9-3.4 1.332a39.926 39.926 0 0 0 -8.231 3.006c-8.491 2.937-16.5 5.212-23.483 6.956l-.32-2.5q-.418-3.243-.6-6.474a191.621 191.621 0 0 0 93.511-67.04 6 6 0 0 0 -1.2-8.401zm-95.223 110.493a7.662 7.662 0 0 1 3.237-5.263 5.158 5.158 0 0 1 2.719-.89 39.587 39.587 0 0 0 -.711 14.5c-.187-.06-.373-.114-.557-.188a7.676 7.676 0 0 1 -4.688-8.159zm4.823 24.594v-4.11a16.529 16.529 0 0 0 2.742.252 1.051 1.051 0 0 0 .258-.017v8.881a76.394 76.394 0 0 0 1.824 15.446 43.851 43.851 0 0 1 -4.824-20.452zm27.182-46.556q3.483-1.219 7.065-2.585a28.288 28.288 0 1 1 -7.065 2.585zm-11.639 56.69a40.212 40.212 0 0 0 64.551-25.6 40.214 40.214 0 0 0 62.829 26.882 63.676 63.676 0 0 1 -63.323 57.866 64.349 64.349 0 0 1 -64.057-59.146zm10.457 113.134a23.377 23.377 0 0 1 13.664-21.324v9.545a35.706 35.706 0 0 0 22.9 33.254l-36.564 20.101zm-65 41.922a37.745 37.745 0 0 1 37.7-37.7h15.3v40.791a10 10 0 0 0 13.443 9.388 5.947 5.947 0 0 0 .825-.375l51.732-28.442 37.877 20.823c-6.669 8.191-9.841 16.389-9.416 24.4.6 11.271 8.224 21.012 22.668 28.954.131.072.265.139.4.2a28.906 28.906 0 0 1 14.893 20.907 6 6 0 0 0 4.845 4.933c.054.01.108.007.162.015a50.964 50.964 0 0 1 -1.709 5.038h-139.439a50.455 50.455 0 0 1 .519-38.62 6 6 0 1 0 -11.014-4.764 62.538 62.538 0 0 0 -2.247 43.384h-36.539z"/><path d="m256 408.612a10.544 10.544 0 1 0 -10.544-10.543 10.556 10.556 0 0 0 10.544 10.543zm0-12a1.457 1.457 0 1 1 -1.456 1.457 1.458 1.458 0 0 1 1.456-1.457z"/><path d="m256 450.492a10.544 10.544 0 1 0 -10.544-10.543 10.556 10.556 0 0 0 10.544 10.543zm0-12a1.457 1.457 0 1 1 -1.456 1.457 1.458 1.458 0 0 1 1.456-1.457z"/><path d="m283.874 188.205a6 6 0 0 0 6-6 6.007 6.007 0 0 1 12.013 0 6 6 0 0 0 12 0 18.007 18.007 0 0 0 -36.013 0 6 6 0 0 0 6 6z"/><path d="m204.3 188.205a6 6 0 0 0 6-6 6.007 6.007 0 0 1 12.013 0 6 6 0 0 0 12 0 18.007 18.007 0 0 0 -36.013 0 6 6 0 0 0 6 6z"/><path d="m279.854 236.313a6 6 0 1 0 -8.485-8.486 22.331 22.331 0 0 1 -31.546 0 6 6 0 0 0 -8.485 8.486 34.347 34.347 0 0 0 48.516 0z"/></g></svg>