<svg viewBox="-113 0 512 512.00108" xmlns="http://www.w3.org/2000/svg"><path d="m184.777344 408.816406c-3.203125 5.792969-10.992188 7.039063-15.84375 2.53125l-25.4375-23.632812.011718-.019532c-.230468.007813-.457031.019532-.691406.019532-.230468 0-.460937-.011719-.695312-.019532l.015625.019532-25.4375 23.632812c-4.851563 4.507813-12.644531 3.261719-15.84375-2.53125l-28.644531-51.832031c-31.703126 2.957031-56.519532 29.628906-56.519532 62.105469v82.910156h255.496094v-82.910156c0-32.925782-25.511719-59.875-57.84375-62.207032l.113281.035157zm0 0" fill="#4dc3ce"/><path d="m168.042969 317.417969c-.964844.457031-1.945313.910156-2.933594 1.355469-.59375.269531-1.1875.539062-1.789063.800781-1.074218.46875-2.171874.929687-3.273437 1.382812-.527344.21875-1.050781.441407-1.585937.652344-1.640626.660156-3.308594 1.304687-5.011719 1.925781-.003907 0-.007813 0-.011719 0-6.570312 2.398438-13.789062 2.398438-20.363281 0-.003907 0-.007813 0-.007813 0h-.003906c-1.703125-.621094-3.367188-1.265625-5.011719-1.921875-.535156-.214843-1.058593-.4375-1.589843-.65625-1.101563-.453125-2.195313-.910156-3.269532-1.378906-.601562-.265625-1.195312-.535156-1.789062-.800781-.988282-.445313-1.96875-.898438-2.933594-1.355469-.59375-.28125-1.179688-.566406-1.765625-.851563-.96875-.476562-1.921875-.957031-2.867187-1.449218-.269532-.136719-.546876-.269532-.816407-.410156v30.054687l29.105469 42.933594c.230469.007812.460938.019531.691406.019531.234375 0 .460938-.011719.695313-.019531l29.101562-42.933594v-29.613281c-.925781.480468-1.859375.953125-2.808593 1.417968-.582032.28125-1.171876.566407-1.761719.847657zm0 0" fill="#ceae98"/><path d="m116.699219 411.347656 25.4375-23.632812-.011719-.019532-29.105469-42.933593-.679687-1.003907-40.164063 13.160157.035157.066406 28.644531 51.832031c3.203125 5.792969 10.992187 7.039063 15.84375 2.53125zm0 0" fill="#d3e6f0"/><path d="m143.511719 387.695312-.015625.019532 25.441406 23.632812c4.847656 4.507813 12.640625 3.261719 15.839844-2.53125l28.679687-51.898437-.109375-.035157-40.050781-13.125-.679687 1.003907zm0 0" fill="#d3e6f0"/><path d="m40.105469 163.753906c-6.808594-3.335937-25.84375-11.089844-29.582031 4.300782-3.921876 16.132812 14.242187 50.460937 34.375 59.644531-6.6875-25.945313-6.074219-50.09375-4.792969-63.945313zm0 0" fill="#ceae98"/><path d="m264.109375 162.546875c-4.960937 3.613281-11.230469 4.542969-17.457031 4.164063 1.082031 14.179687 1.195312 36.796874-5.042969 60.988281 20.132813-9.179688 38.300781-43.511719 34.378906-59.644531-1.308593-5.375-4.480469-7.917969-8.347656-8.824219-1.042969 1.230469-2.207031 2.351562-3.53125 3.316406zm0 0" fill="#ceae98"/><g fill="#fcdac6"><path d="m84.730469 295.171875c-.117188-.105469-.238281-.210937-.355469-.316406.113281.105469.234375.210937.355469.316406zm0 0"/><path d="m236.976562 242.585938c-.199218.535156-.402343 1.066406-.609374 1.601562.207031-.535156.410156-1.066406.609374-1.601562zm0 0"/><path d="m191.792969 303.292969c-.476563.351562-.953125.699219-1.4375 1.046875.484375-.347656.960937-.695313 1.4375-1.046875zm0 0"/><path d="m198.820312 297.753906c-.378906.324219-.773437.640625-1.160156.960938.386719-.320313.78125-.636719 1.160156-.960938zm0 0"/><path d="m234.28125 249.355469c-.226562.527343-.449219 1.054687-.683594 1.582031.234375-.527344.457032-1.054688.683594-1.582031zm0 0"/><path d="m232.746094 252.820312c-.226563.492188-.445313.980469-.675782 1.46875.230469-.488281.449219-.976562.675782-1.46875zm0 0"/><path d="m238.171875 239.226562c-.171875.5-.355469 1.003907-.535156 1.507813.179687-.503906.363281-1.003906.535156-1.507813zm0 0"/><path d="m195.398438 300.546875c-.449219.355469-.910157.710937-1.367188 1.0625.457031-.351563.917969-.707031 1.367188-1.0625zm0 0"/><path d="m235.683594 245.960938c-.214844.539062-.433594 1.074218-.65625 1.613281.222656-.539063.441406-1.074219.65625-1.613281zm0 0"/><path d="m187.957031 306.015625c-.464843.316406-.925781.636719-1.398437.953125.472656-.316406.933594-.636719 1.398437-.953125zm0 0"/><path d="m56.492188 258.425781c-.269532-.519531-.535157-1.039062-.792969-1.558593.261719.519531.523437 1.039062.792969 1.558593zm0 0"/><path d="m174.269531 314.292969c-.523437.277343-1.0625.550781-1.59375.824219.53125-.273438 1.070313-.546876 1.59375-.824219zm0 0"/><path d="m58.515625 262.199219c-.257813-.460938-.519531-.917969-.769531-1.378907.25.460938.511718.917969.769531 1.378907zm0 0"/><path d="m183.617188 308.867188c-.335938.210937-.65625.425781-.996094.632812.339844-.207031.660156-.421875.996094-.632812zm0 0"/><path d="m178.542969 311.9375c-.359375.203125-.730469.402344-1.089844.605469.359375-.203125.730469-.402344 1.089844-.605469zm0 0"/><path d="m214.777344 281.613281c-.339844.414063-.691406.824219-1.039063 1.234375.347657-.410156.699219-.820312 1.039063-1.234375zm0 0"/><path d="m222.773438 270.800781c-.296876.449219-.59375.902344-.898438 1.351563.304688-.449219.601562-.902344.898438-1.351563zm0 0"/><path d="m217.296875 278.472656c-.265625.339844-.539063.675782-.808594 1.015625.269531-.339843.542969-.675781.808594-1.015625zm0 0"/><path d="m64.636719 272.152344c-.304688-.449219-.601563-.902344-.902344-1.355469.300781.453125.59375.90625.902344 1.355469zm0 0"/><path d="m220.351562 274.328125c-.242187.347656-.480468.695313-.730468 1.039063.25-.34375.488281-.691407.730468-1.039063zm0 0"/><path d="m212.117188 284.730469c-.375.421875-.75.84375-1.132813 1.261719.382813-.417969.757813-.839844 1.132813-1.261719zm0 0"/><path d="m230.816406 256.863281c-.261718.519531-.527344 1.042969-.796875 1.5625.269531-.519531.535157-1.042969.796875-1.5625zm0 0"/><path d="m206.210938 290.980469c-.351563.347656-.695313.695312-1.050782 1.042969.355469-.347657.699219-.695313 1.050782-1.042969zm0 0"/><path d="m66.890625 275.367188c-.253906-.347657-.492187-.699219-.738281-1.046876.246094.347657.484375.699219.738281 1.046876zm0 0"/><path d="m228.761719 260.820312c-.25.460938-.511719.921876-.765625 1.382813.257812-.460937.515625-.921875.765625-1.382813zm0 0"/><path d="m60.464844 265.589844c-.289063-.484375-.574219-.964844-.855469-1.449219.28125.484375.566406.964844.855469 1.449219zm0 0"/><path d="m226.902344 264.140625c-.28125.480469-.566406.964844-.855469 1.449219.289063-.484375.574219-.964844.855469-1.449219zm0 0"/><path d="m224.914062 267.457031c-.296874.480469-.597656.957031-.898437 1.4375.304687-.480469.601563-.957031.898437-1.4375zm0 0"/><path d="m62.496094 268.894531c-.304688-.476562-.601563-.957031-.902344-1.4375.300781.480469.597656.960938.902344 1.4375zm0 0"/><path d="m209.289062 287.828125c-.382812.40625-.765624.8125-1.15625 1.214844.390626-.402344.773438-.808594 1.15625-1.214844zm0 0"/><path d="m202.125 294.867188c-.109375.101562-.222656.199218-.332031.296874.109375-.097656.222656-.199218.332031-.296874zm0 0"/><path d="m103.886719 309.503906c-.335938-.210937-.660157-.425781-.996094-.636718.335937.210937.660156.425781.996094.636718zm0 0"/><path d="m99.953125 306.96875c-.472656-.316406-.933594-.636719-1.398437-.953125.464843.316406.925781.636719 1.398437.953125zm0 0"/><path d="m88.855469 298.71875c-.390625-.324219-.785157-.640625-1.167969-.964844.382812.324219.777344.644532 1.167969.964844zm0 0"/><path d="m92.484375 301.609375c-.460937-.351563-.921875-.707031-1.375-1.0625.453125.355469.914063.710937 1.375 1.0625zm0 0"/><path d="m48.867188 240.722656c-.175782-.5-.355469-.996094-.527344-1.492187.171875.496093.351562.992187.527344 1.492187zm0 0"/><path d="m96.15625 304.339844c-.484375-.347656-.964844-.695313-1.441406-1.046875.476562.351562.957031.699219 1.441406 1.046875zm0 0"/><path d="m81.351562 292.023438c-.355468-.347657-.699218-.695313-1.050781-1.042969.351563.347656.695313.695312 1.050781 1.042969zm0 0"/><path d="m51.480469 247.574219c-.21875-.539063-.4375-1.074219-.652344-1.613281.214844.539062.433594 1.074218.652344 1.613281zm0 0"/><path d="m50.140625 244.183594c-.203125-.53125-.40625-1.0625-.601563-1.59375.195313.53125.398438 1.0625.601563 1.59375zm0 0"/><path d="m75.523438 285.992188c-.378907-.417969-.757813-.839844-1.128907-1.261719.371094.421875.75.84375 1.128907 1.261719zm0 0"/><path d="m109.0625 312.542969c-.363281-.203125-.734375-.402344-1.09375-.609375.359375.207031.730469.40625 1.09375.609375zm0 0"/><path d="m78.378906 289.042969c-.390625-.402344-.773437-.808594-1.15625-1.214844.382813.40625.765625.8125 1.15625 1.214844zm0 0"/><path d="m72.773438 282.847656c-.347657-.410156-.699219-.820312-1.039063-1.234375.339844.414063.691406.824219 1.039063 1.234375zm0 0"/><path d="m52.914062 250.9375c-.234374-.527344-.460937-1.054688-.683593-1.582031.222656.527343.449219 1.054687.683593 1.582031zm0 0"/><path d="m70.023438 279.484375c-.269532-.335937-.542969-.671875-.808594-1.011719.261718.339844.539062.675782.808594 1.011719zm0 0"/><path d="m54.441406 254.289062c-.230468-.488281-.453125-.976562-.675781-1.464843.222656.488281.445313.976562.675781 1.464843zm0 0"/><path d="m121.398438 318.773438c.597656.269531 1.191406.539062 1.792968.800781-.601562-.265625-1.195312-.53125-1.792968-.800781zm0 0"/><path d="m126.460938 320.953125c.53125.21875 1.050781.441406 1.589843.65625-.535156-.214844-1.058593-.4375-1.589843-.65625zm0 0"/><path d="m153.4375 323.535156c.003906 0 .007812 0 .007812-.003906-6.578124 2.398438-13.800781 2.398438-20.378906 0 0 .003906.003906.003906.007813.003906 6.570312 2.398438 13.789062 2.398438 20.363281 0zm0 0"/><path d="m158.460938 321.609375c.535156-.214844 1.054687-.4375 1.585937-.652344-.53125.214844-1.050781.4375-1.585937.652344zm0 0"/><path d="m163.320312 319.574219c.601563-.265625 1.195313-.53125 1.789063-.800781-.59375.269531-1.1875.535156-1.789063.800781zm0 0"/><path d="m168.042969 317.417969c.59375-.28125 1.179687-.5625 1.761719-.851563-.582032.285156-1.171876.570313-1.761719.851563zm0 0"/><path d="m112.242188 314.292969c.257812.136719.515624.277343.777343.414062.265625.140625.546875.273438.816407.410157-.53125-.273438-1.070313-.546876-1.59375-.824219zm0 0"/><path d="m116.703125 316.566406c.585937.285156 1.171875.570313 1.765625.851563-.59375-.28125-1.179688-.566407-1.765625-.851563zm0 0"/><path d="m246.652344 166.710938c-2.171875-.132813-4.339844-.421876-6.441406-.816407-26.5-4.953125-49.691407-24.816406-58.65625-50.242187-19.960938 14.152344-43.683594 22.609375-67.960938 25.222656-18.808594 2.027344-47.699219 5.421875-68.824219-2.160156-1.988281 7.476562-3.058593 12.925781-3.058593 12.925781s-.902344 4.507813-1.605469 12.113281c-1.28125 13.851563-1.894531 38 4.792969 63.945313.980468 3.792969 2.105468 7.617187 3.417968 11.460937l62.449219-11.863281c21.464844-4.074219 43.507813-4.074219 64.976563 0l62.449218 11.863281c1.3125-3.84375 2.441406-7.667968 3.417969-11.460937 6.238281-24.195313 6.125-46.808594 5.042969-60.988281zm0 0"/></g><path d="m110.765625 227.296875-62.449219 11.863281c.007813.023438.015625.046875.023438.066406.171875.5.351562.996094.527344 1.496094.222656.621094.441406 1.242188.671874 1.867188.195313.53125.398438 1.0625.601563 1.59375.226563.589844.453125 1.183594.6875 1.777344.214844.535156.433594 1.074218.652344 1.609374.246093.597657.496093 1.191407.75 1.785157.222656.527343.449219 1.054687.679687 1.582031.277344.628906.566406 1.253906.855469 1.882812.222656.488282.445313.980469.671875 1.464844.410156.863282.832031 1.722656 1.261719 2.582032.257812.519531.523437 1.039062.789062 1.558593.414063.796875.828125 1.597657 1.257813 2.394531.25.460938.511718.917969.765625 1.378907.359375.648437.722656 1.292969 1.097656 1.9375.277344.484375.566406.96875.855469 1.453125.367187.621094.746094 1.242187 1.128906 1.863281.296875.480469.597656.960937.902344 1.441406.40625.632813.820312 1.265625 1.238281 1.898438.296875.453125.59375.90625.902344 1.359375.492187.722656 1.003906 1.445312 1.515625 2.167968.246094.347657.484375.699219.738281 1.042969.753906 1.042969 1.527344 2.078125 2.324219 3.105469.261718.339844.539062.675781.804687 1.015625.5625.710937 1.128907 1.421875 1.710938 2.128906.34375.414063.695312.820313 1.039062 1.230469.535157.632812 1.074219 1.257812 1.625 1.882812.371094.421876.75.84375 1.128907 1.265626.558593.613281 1.125 1.222656 1.699218 1.832031.382813.40625.765625.816406 1.152344 1.21875.628906.648437 1.277344 1.292969 1.925781 1.9375.347657.34375.691407.695312 1.050781 1.039062.984376.953125 1.988282 1.898438 3.019532 2.835938.117187.105469.238281.207031.355468.3125.96875.871093 1.953126 1.734375 2.960938 2.585937.382812.324219.777344.640625 1.167969.960938.742187.617187 1.488281 1.226562 2.253906 1.828125.453125.359375.914063.710937 1.371094 1.066406.734375.5625 1.480469 1.125 2.234375 1.679687.476562.351563.957031.703126 1.441406 1.050782.789062.5625 1.589844 1.121094 2.398438 1.671875.464843.320312.925781.640625 1.398437.953125.960937.640625 1.945313 1.273437 2.9375 1.898437.335937.210938.660156.425781 1 .636719 1.332031.824219 2.691406 1.636719 4.078125 2.433594.359375.207031.730469.40625 1.09375.609375 1.046875.589843 2.101562 1.171875 3.179688 1.746093.523437.28125 1.0625.550782 1.59375.828126.949218.488281 1.902343.972656 2.871093 1.449218.582031.285156 1.171875.566406 1.761719.847656.964844.460938 1.945312.914063 2.933594 1.355469.59375.269531 1.1875.539063 1.789062.800781 1.074219.46875 2.167969.929688 3.273438 1.382813.527344.214844 1.050781.441406 1.585937.652344 1.644531.660156 3.3125 1.300781 5.015625 1.921875 6.578125 2.398437 13.804688 2.398437 20.382813 0 1.703125-.621094 3.371093-1.265625 5.011719-1.921875.535156-.214844 1.058593-.4375 1.585937-.652344 1.105469-.457031 2.199219-.914063 3.277344-1.382813.601562-.265624 1.191406-.53125 1.785156-.800781.992187-.445312 1.96875-.898437 2.9375-1.355469.589844-.28125 1.179687-.566406 1.761719-.851562.945312-.464844 1.882812-.9375 2.808594-1.417969.019531-.011719.039062-.019531.0625-.03125.53125-.273437 1.066406-.546875 1.589843-.824219 1.082031-.574218 2.136719-1.160156 3.183594-1.75.363281-.203124.734375-.402343 1.089844-.609374 1.386719-.796876 2.746093-1.605469 4.082031-2.433594.335938-.207032.660156-.421875.992188-.632813.992187-.628906 1.976562-1.257812 2.941406-1.902343.472656-.3125.933594-.632813 1.398437-.953126.808594-.550781 1.609375-1.109374 2.398438-1.671874.484375-.347657.964843-.699219 1.441406-1.046876.753906-.558593 1.5-1.121093 2.234375-1.683593.460938-.355469.917969-.707031 1.371094-1.0625.765625-.605469 1.511718-1.21875 2.257812-1.832031.386719-.320313.78125-.636719 1.164063-.960938 1.007812-.855469 2-1.71875 2.96875-2.589844.109375-.101562.222656-.199218.332031-.296875 1.039062-.9375 2.046875-1.886719 3.035156-2.84375.355469-.347656.699219-.695312 1.050782-1.042969.648437-.644531 1.292968-1.285156 1.921874-1.9375.390626-.402343.773438-.808593 1.15625-1.214843.574219-.609375 1.140626-1.21875 1.695313-1.835938.382813-.417969.761719-.839843 1.132813-1.261719.550781-.625 1.089843-1.253906 1.625-1.886718.347656-.40625.695312-.816406 1.035156-1.230469.582031-.703125 1.148437-1.414063 1.710937-2.125.269531-.339844.542969-.675781.808594-1.015625.792969-1.03125 1.570313-2.066406 2.328125-3.105469.246094-.34375.484375-.691406.730469-1.039062.511719-.722657 1.023437-1.449219 1.519531-2.175781.304688-.449219.601562-.902344.898438-1.351563.417968-.636719.835937-1.269531 1.242187-1.90625.304687-.480469.601563-.957031.898437-1.4375.386719-.621094.761719-1.246094 1.132813-1.867187.289063-.484376.574219-.96875.855469-1.449219.371094-.644531.734375-1.292969 1.09375-1.941407.257812-.457031.515625-.917968.765625-1.378906.433593-.796875.847656-1.597656 1.257812-2.394531.269531-.523437.535157-1.042969.796875-1.566406.425782-.855469.847656-1.710938 1.253906-2.570313.230469-.488281.449219-.980468.675782-1.46875.289062-.628906.574218-1.253906.855468-1.882812.230469-.527344.457032-1.054688.679688-1.582032.253906-.59375.503906-1.1875.75-1.78125.21875-.539062.4375-1.078124.652344-1.613281.234375-.59375.460937-1.183593.6875-1.773437.203125-.535156.410156-1.066406.605468-1.601563.226563-.617187.445313-1.234375.664063-1.851562.175781-.503907.359375-1.007813.53125-1.507813.007813-.023437.015625-.042968.023437-.066406l-62.449218-11.863281c-21.46875-4.070313-43.511719-4.070313-64.980469.003906zm0 0" fill="#4dc3ce"/><path d="m113.59375 140.875c24.277344-2.613281 48-11.070312 67.960938-25.222656 8.964843 25.425781 32.15625 45.289062 58.65625 50.242187 2.101562.394531 4.269531.683594 6.441406.816407 6.226562.378906 12.496094-.550782 17.457031-4.164063 1.324219-.964844 2.488281-2.085937 3.53125-3.316406 3.820313-4.503907 5.882813-10.53125 7.167969-16.402344 9.304687-42.484375-13.441406-88.394531-50.019532-111.921875-36.582031-23.53125-84.199218-26.210938-125.621093-12.949219-33.671875 10.78125-83.914063 44.195313-81.164063 85.34375 1.316406 19.734375 12.195313 30.1875 26.765625 35.414063 21.125 7.582031 50.015625 4.1875 68.824219 2.160156zm0 0" fill="#f69969"/><path d="m247.199219 243.707031c.003906-.007812.003906-.015625.007812-.023437.152344-.429688.308594-.855469.457031-1.289063.050782-.148437.082032-.296875.125-.449219.832032-2.453124 1.621094-4.9375 2.34375-7.46875 21.808594-13.160156 40.542969-48.332031 35.574219-68.789062-.910156-3.730469-2.488281-6.929688-4.648437-9.503906 1.429687-3.304688 2.605468-7.023438 3.519531-11.21875 4.949219-22.605469 2.015625-46.601563-8.492187-69.390625-9.957032-21.597657-26.25-40.449219-45.886719-53.078125-37.039063-23.824219-87.160157-29.082032-134.074219-14.0625-35.765625 11.445312-91.308594 47.503906-88.097656 95.539062 1.230468 18.421875 9.835937 32.242188 25.023437 40.445313-.726562 3.15625-1.121093 5.136719-1.144531 5.257812-.003906.027344-.03125.160157-.070312.371094-6.539063-1.617187-13.5-1.921875-19.566407.929687-4.0625 1.90625-9.347656 6.007813-11.460937 14.71875-4.96875 20.449219 13.765625 55.621094 35.570312 68.78125.726563 2.53125 1.511719 5.015626 2.34375 7.46875.042969.148438.078125.300782.128906.449219 11.671876 34.199219 33.253907 60.484375 64.171876 78.21875v15.679688l-33.261719 10.902343c-17.292969 1.984376-33.25 10.105469-45.074219 23.011719-12.246094 13.375-18.992188 30.734375-18.992188 48.886719v82.90625c0 5.523438 4.476563 10 10 10h255.496094c5.523438 0 10-4.476562 10-10v-82.90625c0-37.355469-28.816406-68.742188-65.84375-72.078125l-32.734375-10.726563v-15.164062c30.980469-17.511719 52.691407-43.527344 64.585938-77.417969zm-137.585938 160.265625-22.832031-41.3125 21.515625-7.046875 20.757813 30.609375-19.152344 17.796875c-.046875.042969-.070313.0625-.160156.050781-.082032-.015624-.09375-.035156-.128907-.097656zm-55.039062-178.777344c-1.210938-4.707031-2.167969-9.363281-2.914063-13.898437-3.226562-19.652344-2.488281-37.023437-1.601562-46.632813v-.003906c.644531-6.890625 1.453125-11.039062 1.464844-11.09375.003906-.019531.1875-.929687.527343-2.488281.050781.007813.097657.015625.148438.027344 1.136719.230469 2.28125.441406 3.433593.632812.230469.039063.464844.074219.695313.113281 1.140625.183594 2.285156.351563 3.433594.496094.199219.023438.398437.046875.597656.070313 1.097656.132812 2.199219.253906 3.300781.355469.140625.015624.28125.03125.425782.042968 1.15625.105469 2.316406.191406 3.476562.265625.277344.019531.550781.035157.828125.050781 1.121094.066407 2.246094.121094 3.367187.160157.285157.011719.566407.019531.851563.027343 1.089844.035157 2.179687.058594 3.265625.070313.191406.003906.386719.003906.578125.007813 1.058594.007812 2.117187.003906 3.171875-.003907.296875-.003906.59375-.003906.894531-.011719 1.078125-.011718 2.152344-.039062 3.226563-.070312.328125-.007812.660156-.019531.988281-.03125 1.070313-.035156 2.136719-.078125 3.195313-.128906.253906-.011719.507812-.027344.761718-.039063.921875-.046875 1.84375-.101562 2.753906-.15625.289063-.019531.574219-.035156.859376-.050781 1.023437-.066406 2.03125-.140625 3.035156-.214844.339844-.023437.675781-.050781 1.015625-.074218.980469-.078126 1.957031-.160157 2.917969-.242188.304687-.027344.601562-.054688.90625-.082031.832031-.074219 1.660156-.148438 2.476562-.226563.238281-.023437.480469-.046875.722656-.066406.945313-.09375 1.871094-.1875 2.789063-.28125.316406-.03125.625-.0625.9375-.09375.894531-.09375 1.769531-.183594 2.632812-.277344.316407-.035156.621094-.066406.933594-.097656.851563-.09375 1.695313-.183594 2.511719-.273438l1.488281-.160156c22.453125-2.414062 43.820313-9.421875 62.472656-20.410156.382813.71875.777344 1.429688 1.179688 2.140625.136719.246094.285156.484375.425781.730469.269531.457031.535156.917968.808594 1.371094.175781.292968.359375.578124.539062.867187.25.402344.5.804687.757813 1.199219.195312.304687.398437.601562.597656.902344.25.378906.496094.757812.753906 1.128906.210938.308594.425781.609375.640625.910156.253906.363281.507813.726562.765625 1.082031.226563.308594.460938.613281.6875.917969.257813.34375.511719.691406.777344 1.03125.238281.308594.480469.613281.722656.917969.261719.332031.523438.664062.792969.992187.242188.300782.496094.597656.746094.894532.273437.324218.542968.65625.824218.976562.253907.296875.511719.585938.769532.875.28125.316406.558594.636719.84375.949219.265625.289062.535156.574219.804687.863281.285157.304688.574219.613281.863281.917969.273438.28125.550782.5625.828126.84375.296874.296875.585937.59375.886718.886719.28125.28125.570313.554687.855469.828124.300781.289063.601563.578126.902344.863282.289062.269531.585937.53125.878906.800781.308594.28125.617187.5625.929687.839844.296876.261719.597657.515625.894532.773437.316406.273438.632812.546875.953125.8125.304687.253906.613281.503906.921875.753906.320312.261719.644531.527344.96875.785157.3125.246093.625.488281.941406.730469.328125.253906.660156.511718.992188.761718.316406.234375.636718.464844.957031.699219.335937.246094.675781.492187 1.019531.734375.320312.230469.644531.449219.96875.675781.347656.238281.691406.472657 1.039062.707031.328126.21875.660157.433594.988282.648438.355468.226562.707031.457031 1.0625.679688.332031.207031.664062.414062 1 .617187.359375.21875.71875.4375 1.082031.652344.335937.199219.675781.394531 1.015625.589843.367188.210938.734375.417969 1.101562.625.339844.1875.6875.375 1.03125.558594.371094.203125.742188.402344 1.117188.59375.347656.183594.699219.359375 1.046875.535156.378906.1875.753906.375 1.132813.5625.355468.167969.707031.335938 1.0625.503907.382812.175781.765624.355469 1.152343.527343.355469.160157.710938.316407 1.070313.472657.390625.167969.777344.335937 1.171875.5.359375.148437.71875.296875 1.078125.441406.394531.160156.792968.316406 1.191406.46875.359375.140625.722656.273437 1.085938.410156.402343.148438.800781.292969 1.207031.433594.363281.128906.734375.253906 1.101562.378906.402344.136719.808594.269531 1.214844.402344.371094.117187.738281.230469 1.109375.34375.410156.125.820312.246094 1.234375.367187.371094.105469.746094.210938 1.117187.3125.414063.113282.828126.222657 1.246094.332032l1.125.28125c.417969.097656.835938.199218 1.257813.292968.378906.085938.757812.167969 1.136719.25.203124.039063.402343.089844.601562.128907.003906.082031.007812.160156.011719.242187.011719.339844.015625.691406.027343 1.039063.015626.613281.03125 1.230469.039063 1.859375.007813.390625.011719.789062.015625 1.1875.007812.621094.011719 1.25.011719 1.882812 0 .398438 0 .792969-.003907 1.199219-.003906.710937-.011718 1.433594-.023437 2.160156-.007813.335938-.011719.667969-.015625 1.007813-.027344 1.058594-.058594 2.132812-.101562 3.226562-.007813.234375-.023438.476563-.03125.714844-.039063.871094-.082032 1.75-.132813 2.636719-.023437.40625-.054687.820312-.078125 1.230469-.050781.742187-.101562 1.492187-.15625 2.25-.035156.445312-.070312.890624-.109375 1.339843-.0625.757813-.136719 1.527344-.210937 2.296875-.039063.433594-.082032.863282-.125 1.300782-.097657.925781-.207032 1.859374-.316407 2.796874-.035156.28125-.066406.558594-.101562.839844-.148438 1.207032-.316407 2.429688-.5 3.660156-.050781.355469-.109375.71875-.167969 1.078126-.136719.890624-.277344 1.785156-.429688 2.6875-.078124.457031-.164062.921874-.246093 1.382812-.148438.824219-.300781 1.648438-.464844 2.476562-.089844.476563-.1875.953126-.285156 1.433594-.175781.871094-.367188 1.746094-.558594 2.621094-.097656.421875-.183594.84375-.28125 1.265625-.300781 1.296875-.613281 2.59375-.949219 3.898437v.003907c-.214844.832031-.449218 1.648437-.675781 2.46875l-53.652344-10.1875c-22.796875-4.332031-45.910156-4.335938-68.703125 0l-53.65625 10.1875c-.230468-.820313-.460937-1.640625-.679687-2.472657zm88.25 145.695313-13.425781-19.800781-3.835938-5.652344-2.539062-3.746094v-11.320312c.246093.097656.496093.195312.746093.296875.292969.117187.589844.234375.882813.351562.015625.003907.03125.007813.042968.015625.226563.089844.449219.179688.675782.269532 1.410156.554687 2.832031 1.101562 4.265625 1.625 8.78125 3.203124 18.457031 3.203124 27.234375 0 .792968-.285157 1.570312-.597657 2.359375-.898438.777343-.296875 1.558593-.585938 2.328125-.890625.269531-.105469.539062-.207031.804687-.316406.082031-.03125.167969-.0625.25-.09375v10.980469zm-10.867188-106.378906c-.582031-5.492188-5.507812-9.460938-11-8.886719-20.804687 2.214844-38.558593 7.484375-48.117187 10.765625-4.144532-6.109375-7.777344-12.652344-10.855469-19.644531l50.65625-9.617188c20.316406-3.863281 40.917969-3.863281 61.234375 0l50.652344 9.617188c-4.253906 9.667968-9.539063 18.496094-15.828125 26.46875-13.222657-5.082032-26.222657-5.492188-38.449219-5.039063-5.519531.203125-9.828125 4.84375-9.625 10.359375.203125 5.523438 4.894531 9.84375 10.363281 9.625 6.871094-.253906 14.433594-.304687 22.136719 1.28125-4.761719 4.097656-9.882812 7.882813-15.386719 11.316406-.164062.105469-.332031.207032-.5.3125-2.84375 1.757813-5.789062 3.425782-8.828125 5.007813-.417968.214844-.84375.425781-1.261718.640625-.917969.464844-1.84375.925781-2.777344 1.375-.484375.230469-.96875.460938-1.457032.6875-.875.410156-1.761718.8125-2.648437 1.207031-.5625.25-1.125.503907-1.695313.75-.789062.339844-1.582031.664063-2.378906.992188-.664062.273437-1.320312.550781-1.992187.8125-.753907.300781-1.519531.585937-2.28125.871093-.636719.242188-1.261719.492188-1.90625.722657-4.351563 1.589843-9.152344 1.589843-13.511719 0-.257812-.09375-.507812-.195313-.765625-.289063-1.25-.464844-2.496094-.9375-3.726563-1.425781-.445312-.179687-.882812-.363281-1.324218-.542969-1.125-.460937-2.242188-.925781-3.34375-1.410156-.347656-.148438-.691406-.300781-1.035156-.453125-1.308594-.582031-2.605469-1.179687-3.882813-1.789063-.121094-.058593-.242187-.113281-.363281-.171874-1.488282-.71875-2.953125-1.453126-4.390625-2.210938-11.90625-6.238281-22.289063-13.875-31.160157-22.832031 9.101563-2.734375 22.0625-5.953125 36.566407-7.5 5.488281-.582031 9.46875-5.511719 8.882812-11zm124.457031-64.328125c.035157-.363282.058594-.71875.089844-1.082032.03125-.390624.066406-.78125.09375-1.171874.078125-.992188.148438-1.976563.210938-2.949219.015625-.292969.039062-.589844.054687-.882813.074219-1.257812.136719-2.503906.1875-3.730468.007813-.160157.011719-.3125.015625-.472657.042969-1.058593.074219-2.101562.097656-3.128906.007813-.351563.015626-.695313.023438-1.042969.015625-.863281.027344-1.714844.03125-2.554687 0-.328125.003906-.660157.007812-.988281 0-1.03125-.003906-2.046876-.015624-3.042969-.003907-.089844-.003907-.1875-.003907-.277344-.011719-.949219-.03125-1.882813-.054687-2.796875.128906-.027344.25-.0625.378906-.085938.386719-.078124.765625-.171874 1.148438-.261718.484374-.117188.972656-.234375 1.445312-.367188.378906-.105468.75-.222656 1.117188-.34375.460937-.144531.917968-.300781 1.367187-.464844.363281-.132812.71875-.273437 1.074219-.421874.441406-.179688.875-.371094 1.304687-.566407.339844-.160156.679688-.324219 1.011719-.496093.1875-.09375.382812-.175782.566406-.273438.195313 6.683594-3.863281 17.667969-10.152344 27.402344zm-154.191406-172.703125c41.289063-13.21875 85.085938-8.792969 117.160156 11.835937 34.464844 22.167969 53.664063 64.800782 45.660157 101.371094-.003907 0-.003907.003906-.003907.007812-1.214843 5.578126-2.851562 9.519532-5.054687 12.109376-.535156.636718-1.128906 1.195312-1.757813 1.652343-2.46875 1.796875-6.15625 2.558594-10.96875 2.265625-1.621093-.097656-3.382812-.320312-5.210937-.660156-20.804687-3.882812-39.691406-18.839844-48.722656-38.046875 4.953125-5.683594 12.246093-16.078125 18.691406-33.214844 1.941406-5.167969-.671875-10.9375-5.839844-12.878906-5.171875-1.945313-10.9375.671875-12.882812 5.839844-7.765625 20.65625-16.554688 28.84375-17.75 29.890625-18.050781 12.734375-39.832031 20.789062-63.011719 23.28125l-1.5.160156c-17.710938 1.917969-44.476562 4.816406-62.878906-1.789062-12.855469-4.613282-19.265625-13.089844-20.171875-26.664063-2.292969-34.332031 42.945312-65.144531 74.242187-75.160156zm-81.980468 142.933593c.238281-.988281.503906-1.320312.496093-1.320312.660157-.410156 3.6875-.605469 8.859375 1.105469-.023437.457031-.042968.9375-.066406 1.402343-.023438.488282-.046875.96875-.070312 1.464844-.027344.695313-.050782 1.40625-.074219 2.117188-.011719.476562-.03125.945312-.042969 1.433594-.019531.796874-.03125 1.617187-.042969 2.433593-.007812.425781-.015625.839844-.019531 1.269531-.007812 1.179688-.007812 2.382813.003906 3.601563.003906.082031 0 .160156 0 .242187.015625 1.304688.042969 2.636719.085938 3.988282.011718.394531.03125.804687.046875 1.207031.03125.957031.070312 1.917969.117187 2.894531.027344.519532.0625 1.054688.09375 1.578125.050782.875.101563 1.75.164063 2.644531.042969.578126.09375 1.171876.140625 1.757813.050781.640625.09375 1.277344.152344 1.925781-7.097657-10.988281-11.347657-23.5625-9.84375-29.746094zm240.949218 248.675782v72.910156h-25.027344v-41.886719c0-5.519531-4.476562-10-10-10-5.523437 0-10 4.480469-10 10v41.886719h-143.96875v-41.886719c0-5.519531-4.476562-10-10-10-5.519531 0-10 4.480469-10 10v41.886719h-26.5v-72.910156c0-25.050782 17.285157-46.042969 41.132813-51.191406l25.28125 45.742187c3.019531 5.476563 8.289063 9.183594 14.460937 10.175781.488282.078125.980469.132813 1.46875.175782.121094.011718.242188.019531.363282.027343.414062.027344.824218.046875 1.234375.046875.0625.003906.121093.007813.183593.007813.019532 0 .039063-.003907.058594-.003907.5625 0 1.121094-.027343 1.675782-.078124.101562-.007813.203124-.015626.304687-.027344.558594-.058594 1.113281-.132813 1.660156-.234375.046875-.007813.089844-.019531.132813-.027344.523437-.101563 1.042968-.230469 1.558594-.371094.082031-.023437.164062-.042969.242187-.066406.523437-.15625 1.039063-.332031 1.550781-.527344.097656-.039062.199219-.082031.300782-.121093.511718-.207032 1.023437-.429688 1.519531-.679688.03125-.015625.058593-.03125.085937-.046875.480469-.246094.945313-.511719 1.40625-.796875.085938-.050781.175782-.105469.261719-.160156.460937-.292969.914063-.605469 1.351563-.9375.089843-.070313.175781-.140625.261718-.207032.449219-.355468.894532-.71875 1.316406-1.113281l19.3125-17.945312 19.3125 17.941406c.425782.398437.867188.765625 1.320313 1.117187.082031.066407.167969.136719.253906.199219.441407.335938.894531.652344 1.355469.945313.082031.054687.167969.105468.25.15625.46875.289062.949219.5625 1.4375.8125.019531.007812.035156.019531.054688.027344.503906.253906 1.019531.480468 1.539062.691406.09375.039062.1875.074218.28125.113281.515625.195313 1.035156.375 1.5625.53125.078125.019531.152344.039063.226562.0625.523438.144531 1.054688.273437 1.589844.378906.035156.003907.070313.015625.105469.019531.550781.105469 1.109375.179688 1.667969.238282.101562.007812.203125.019531.304687.027344.550781.050781 1.109375.078124 1.667969.078124.023438 0 .046875.003907.070312.003907.066407 0 .136719-.007813.203126-.007813.398437-.003906.796874-.019531 1.191406-.046875.132812-.011719.261718-.019531.390625-.03125.484375-.042969.96875-.097656 1.457031-.175781 6.179688-.988281 11.453125-4.695312 14.472656-10.167969l25.402344-45.960937c24.148438 4.757812 42.253906 26.210937 42.253906 51.40625zm-85.164062-15.109375c-.03125.050781-.042969.074219-.128906.089843-.089844.011719-.105469-.007812-.148438-.042968l-19.160156-17.804688 20.761718-30.609375 21.511719 7.046875zm0 0"/><path d="m112.761719 196.207031c1.574219.90625 3.289062 1.335938 4.980469 1.335938 3.460937 0 6.824218-1.800781 8.675781-5.011719 2.753906-4.789062 1.109375-10.902344-3.675781-13.65625l-.585938-.339844c-11.855469-6.824218-26.476562-6.644531-38.164062.460938-4.714844 2.871094-6.214844 9.023437-3.34375 13.742187 2.871093 4.71875 9.023437 6.214844 13.738281 3.34375 5.449219-3.3125 12.265625-3.394531 17.789062-.214843zm0 0"/><path d="m173.960938 196.082031c5.445312-3.3125 12.261718-3.394531 17.785156-.214843l.589844.339843c1.570312.90625 3.285156 1.335938 4.976562 1.335938 3.460938 0 6.828125-1.800781 8.675781-5.011719 2.757813-4.789062 1.109375-10.902344-3.675781-13.65625l-.585938-.339844c-11.851562-6.824218-26.476562-6.644531-38.160156.460938-4.71875 2.871094-6.21875 9.023437-3.347656 13.742187 2.871094 4.714844 9.023438 6.21875 13.742188 3.34375zm0 0"/><path d="m55.96875 90.523438c1.71875 1.167968 3.671875 1.726562 5.605469 1.726562 3.203125 0 6.347656-1.535156 8.285156-4.382812.175781-.265626 18.214844-26.3125 51.5-30.828126 5.472656-.742187 9.308594-5.78125 8.5625-11.253906-.742187-5.46875-5.777344-9.304687-11.25-8.5625-42.03125 5.699219-64.429687 38.035156-65.359375 39.410156-3.101562 4.566407-1.914062 10.785157 2.65625 13.890626zm0 0"/><path d="m146.128906 46.753906c.25.609375.5625 1.191406.921875 1.730469.359375.550781.777344 1.0625 1.238281 1.519531.460938.460938.972657.882813 1.523438 1.242188.539062.359375 1.117188.667968 1.726562.917968.601563.25 1.230469.441407 1.871094.570313s1.300782.199219 1.949219.199219 1.308594-.070313 1.960937-.199219c.628907-.128906 1.257813-.320313 1.871094-.570313.597656-.25 1.179688-.558593 1.71875-.917968.550782-.359375 1.0625-.78125 1.519532-1.242188.460937-.457031.882812-.96875 1.25-1.519531.359374-.539063.671874-1.121094.921874-1.730469.25-.597656.4375-1.226562.566407-1.867187.132812-.640625.191406-1.300781.191406-1.949219 0-.652344-.0625-1.3125-.191406-1.960938-.128907-.632812-.316407-1.261718-.566407-1.871093-.25-.601563-.5625-1.179688-.921874-1.71875-.367188-.550781-.789063-1.0625-1.25-1.523438-.457032-.457031-.96875-.878906-1.519532-1.25-.539062-.359375-1.121094-.667969-1.71875-.917969-.613281-.25-1.242187-.441406-1.871094-.570312-1.289062-.261719-2.621093-.261719-3.910156 0-.640625.128906-1.269531.320312-1.871094.570312-.609374.25-1.1875.558594-1.726562.917969-.550781.371094-1.0625.792969-1.523438 1.25-.460937.460938-.878906.972657-1.238281 1.523438-.359375.539062-.671875 1.117187-.921875 1.71875-.25.609375-.4375 1.238281-.566406 1.871093-.132812.648438-.203125 1.308594-.203125 1.960938 0 .648438.070313 1.308594.203125 1.949219.128906.636719.316406 1.269531.566406 1.867187zm0 0"/><path d="m152.667969 430.679688c-.25-.609376-.546875-1.1875-.90625-1.726563-.371094-.550781-.789063-1.0625-1.25-1.523437-.460938-.457032-.972657-.878907-1.523438-1.238282-.539062-.371094-1.117187-.671875-1.71875-.921875-.609375-.25-1.238281-.449219-1.871093-.566406-1.289063-.261719-2.617188-.261719-3.910157 0-.636719.117187-1.269531.316406-1.867187.566406-.609375.25-1.191406.550781-1.730469.921875-.550781.359375-1.058594.78125-1.519531 1.238282-.460938.460937-.882813.972656-1.242188 1.523437-.359375.539063-.667968 1.117187-.917968 1.726563-.25.601562-.441407 1.230468-.570313 1.871093s-.199219 1.300781-.199219 1.949219.070313 1.3125.199219 1.949219c.128906.640625.320313 1.273437.570313 1.871093.25.609376.558593 1.191407.917968 1.730469.359375.550781.78125 1.058594 1.242188 1.519531.460937.460938.96875.878907 1.519531 1.238282.539063.359375 1.121094.671875 1.730469.921875.597656.25 1.230468.449219 1.867187.570312.640625.128907 1.300781.199219 1.953125.199219.648438 0 1.308594-.070312 1.957032-.199219.632812-.121093 1.261718-.320312 1.871093-.570312.601563-.25 1.179688-.5625 1.71875-.921875.550781-.359375 1.0625-.777344 1.523438-1.238282.460937-.460937.878906-.96875 1.238281-1.519531.371094-.539062.667969-1.121093.917969-1.730469.25-.601562.453125-1.230468.582031-1.871093s.191406-1.300781.191406-1.949219-.0625-1.308594-.191406-1.949219-.332031-1.269531-.582031-1.871093zm0 0"/><path d="m152.667969 466.671875c-.25-.601563-.546875-1.179687-.917969-1.722656-.359375-.550781-.777344-1.058594-1.238281-1.519531-.460938-.460938-.972657-.878907-1.523438-1.238282-.539062-.371094-1.117187-.671875-1.71875-.921875-.609375-.25-1.238281-.449219-1.871093-.578125-1.289063-.261718-2.617188-.261718-3.910157 0-.636719.128906-1.269531.328125-1.867187.578125-.609375.25-1.191406.550781-1.730469.921875-.550781.359375-1.058594.777344-1.519531 1.238282-.460938.460937-.882813.96875-1.242188 1.519531-.359375.542969-.667968 1.121093-.917968 1.722656-.25.609375-.441407 1.238281-.570313 1.878906s-.199219 1.300781-.199219 1.949219.070313 1.308594.199219 1.949219.320313 1.269531.570313 1.871093c.25.609376.558593 1.1875.917968 1.730469.359375.546875.78125 1.058594 1.242188 1.519531.460937.460938.96875.878907 1.519531 1.238282.539063.359375 1.121094.671875 1.730469.921875.597656.25 1.230468.449219 1.867187.578125.640625.128906 1.300781.191406 1.953125.191406.648438 0 1.308594-.0625 1.957032-.191406.632812-.128906 1.261718-.328125 1.871093-.578125.601563-.25 1.179688-.5625 1.71875-.921875.550781-.359375 1.0625-.777344 1.523438-1.238282.460937-.460937.878906-.972656 1.238281-1.519531.371094-.542969.667969-1.121093.917969-1.730469.25-.601562.453125-1.230468.582031-1.871093s.191406-1.300781.191406-1.949219-.0625-1.308594-.191406-1.949219-.332031-1.269531-.582031-1.878906zm0 0"/></svg>