<?xml version="1.0" encoding="UTF-8"?>
<svg width="1126px" height="191px" viewBox="0 0 1126 191" version="1.1" xmlns="http://www.w3.org/2000/svg" xmlns:xlink="http://www.w3.org/1999/xlink">
    <!-- Generator: Sketch 58 (84663) - https://sketch.com -->
    <title>Group</title>
    <desc>Created with Sketch.</desc>
    <defs>
        <linearGradient x1="0.489830146%" y1="0.481567586%" x2="97.8331254%" y2="97.8329459%" id="linearGradient-1">
            <stop stop-color="#48B0E0" offset="0%"></stop>
            <stop stop-color="#2C62D6" offset="82%"></stop>
        </linearGradient>
        <linearGradient x1="0%" y1="0.0415016193%" x2="101.354067%" y2="98.4055669%" id="linearGradient-2">
            <stop stop-color="#2C62D6" offset="0%"></stop>
            <stop stop-color="#375BB1" offset="100%"></stop>
        </linearGradient>
    </defs>
    <g id="Page-1" stroke="none" stroke-width="1" fill="none" fill-rule="evenodd">
        <g id="Group" transform="translate(0.000000, -40.000000)">
            <g id="Ресурс-1" transform="translate(0.000000, 44.000000)" fill-rule="nonzero">
                <path d="M90.8,100.73 C93.39,96.19 95.07,91.2 96.86,85.92 C98.71,80.43 100.62,74.76 103.67,69.54 C107.727023,62.6659335 113.50293,56.9658444 120.43,53 L120.43,9.87 C120.43,4.42285238 116.017145,0.00551889324 110.57,0 L71.11,0 C65.6589495,0 61.24,4.41894952 61.24,9.87 L61.24,61.24 L9.87,61.24 C4.41894952,61.24 0,65.6589495 0,71.11 L0,110.57 C0,116.02105 4.41894952,120.44 9.87,120.44 L60.87,120.44 C73.3698881,118.884551 84.4333371,111.598865 90.8,100.73 Z" id="Path" fill="url(#linearGradient-1)"></path>
                <path d="M171.81,61.2399949 L120.53,61.2399949 C116.139232,64.3801303 112.456495,68.4069519 109.72,73.06 C107.04,77.67 105.32,82.77 103.5,88.16 C101.68,93.55 99.82,99.07 96.89,104.16 C89.3213727,117.074512 76.1207722,125.678607 61.25,127.39 L61.25,171.76 C61.25,174.377687 62.289872,176.88816 64.1408561,178.739144 C65.9918401,180.590128 68.5023132,181.63 71.12,181.63 L110.58,181.63 C116.03105,181.63 120.45,177.21105 120.45,171.76 L120.45,120.43 L171.82,120.43 C177.27105,120.43 181.69,116.01105 181.69,110.56 L181.69,71.11 C181.69,68.4905797 180.648757,65.9785899 178.795609,64.1273182 C176.942462,62.2760464 174.429419,61.2373461 171.81,61.2399949 Z" id="Path" fill="url(#linearGradient-2)"></path>
                <path d="M120.19,7.72 C119.187478,3.21100534 115.189099,0.00232726303 110.57,0 L71.11,0 C65.6589495,0 61.24,4.41894952 61.24,9.87 L61.24,61.24 L9.87,61.24 C4.41894952,61.24 0,65.6589495 0,71.11 L0,110.57 C0.00359862155,111.770507 0.227297632,112.960179 0.66,114.080337 C23.75,114.15 46.78,103.3 61.05,85.08 C67.21,77.2 71.78,68.23 76.61,58.72 C81.61,48.85 86.83,38.64 94.03,29.6 C101.217321,20.6485155 110.108914,13.2116628 120.19,7.72 L120.19,7.72 Z" id="Path" fill-opacity="0.4" fill="#F1F1F2" opacity="0.25"></path>
            </g>
            <text id="Recovery-Clinic" font-family="Hind-Bold, Hind" font-size="130" font-weight="bold" fill="#2D3549">
                <tspan x="233" y="137">Recovery Clinic</tspan>
            </text>
            <text id="Bone-Marrow-Transpla" font-family="Lato-Semibold, Lato" font-size="54" font-weight="500" fill="#969696">
                <tspan x="236" y="221">Bone Marrow Transplantation</tspan>
            </text>
        </g>
    </g>
</svg>