<svg id="Layer_1" height="512" viewBox="0 0 512 512" width="512" xmlns="http://www.w3.org/2000/svg" data-name="Layer 1"><path d="m392.74 418.95v42.05a40 40 0 0 1 -40 40h-193.48a40 40 0 0 1 -40-40v-42.05z" fill="#b0b5ca"/><path d="m392.74 79.37v339.58h-273.48v-339.58z" fill="#56637b"/><path d="m392.74 51v28.37h-273.48v-28.37a40 40 0 0 1 40-40h193.48a40 40 0 0 1 40 40z" fill="#b0b5ca"/><path d="m344.78 227.49c-2.1-30.77-23.22-55.42-48.99-57.23-15.61-1.1-29.83 5.99-39.98 18a5.265 5.265 0 0 1 -8.37 0c-9.46-11.2-22.45-18.11-36.8-18.11-28.84-.01-52.09 27.53-52.35 62.01a71.9 71.9 0 0 0 7.25 32.38q1.245 2.52 2.67 4.87l.03.05c7.01 14.88 63.67 60.99 76.56 71.36a4.388 4.388 0 0 0 5.33.25c13.14-8.89 69.8-47.92 83.25-69.06a63.8 63.8 0 0 0 4.33-7.47 72.406 72.406 0 0 0 7.07-37.05z" fill="#a0eaea"/><path d="m256 442.88a17.1 17.1 0 1 1 -17.09 17.1 17.1 17.1 0 0 1 17.09-17.1z" fill="#ccd3df"/><path d="m119 79h30v340h-30z" fill="#465060"/><path d="m149 461v-42h-30v42a40.218 40.218 0 0 0 40.26 40h30a40.218 40.218 0 0 1 -40.26-40z" fill="#9296a5"/><path d="m189.26 11h-30a40.218 40.218 0 0 0 -40.26 40v28h30v-28a40.218 40.218 0 0 1 40.26-40z" fill="#9296a5"/><path d="m198.24 269.46-.03-.05q-1.425-2.355-2.67-4.87a71.9 71.9 0 0 1 -7.25-32.38c.213-28.219 15.829-51.779 37.3-59.4a44.37 44.37 0 0 0 -14.951-2.607c-28.84-.01-52.09 27.53-52.35 62.01a71.9 71.9 0 0 0 7.25 32.38q1.245 2.52 2.67 4.87l.03.05c7.01 14.88 63.67 60.99 76.56 71.36a4.388 4.388 0 0 0 5.33.25c2.8-1.9 7.588-5.166 13.508-9.338-21.12-17.386-59.693-50.168-65.397-62.275z" fill="#84bfbe"/><g fill="#284268"><path d="m368.966 258.536h-22.266a80.012 80.012 0 0 0 4.074-31.453c-2.31-33.778-25.767-60.78-54.564-62.81-16.566-1.163-32.765 5.961-44.587 19.643-10.976-12.753-25.508-19.768-40.983-19.77-15.745 0-30.475 7.176-41.473 20.2-10.743 12.726-16.736 29.69-16.875 47.767a78.974 78.974 0 0 0 4.26 26.419h-13.518a6 6 0 0 0 0 12h18.9c.337.6.676 1.2 1.03 1.789 7.732 15.562 57.1 56.293 78.075 73.167a10.309 10.309 0 0 0 12.453.544c16.414-11.1 71.006-48.983 84.915-70.742 1.037-1.541 2-3.132 2.916-4.758h27.648a6 6 0 0 0 0-12zm-121.26 76.922c-30.249-24.378-62.182-52.326-71.7-64.922h24.364a7.927 7.927 0 0 0 7.333-4.886l12.665-30.35 19.386 41.764a7.931 7.931 0 0 0 6.778 4.589c.146.008.289.012.434.012a7.932 7.932 0 0 0 6.8-3.845l17.264-28.646 13.47 18.152a7.979 7.979 0 0 0 6.381 3.21h36.23c-8.011 10.971-32.549 33.164-79.405 64.922zm86.142-76.922h-40.925l-15.858-21.369a7.946 7.946 0 0 0 -13.189.632l-16.449 27.293-20.049-43.192a7.946 7.946 0 0 0 -14.54.284l-15.169 36.351h-28.288a66.278 66.278 0 0 1 -5.1-26.327c.117-15.281 5.1-29.529 14.044-40.118 8.681-10.282 20.152-15.945 32.3-15.945 12.072 0 23.513 5.677 32.218 15.982a11.256 11.256 0 0 0 17.541 0c9.434-11.168 21.842-16.816 34.969-15.885 22.859 1.611 41.533 23.819 43.435 51.658a67.24 67.24 0 0 1 -4.94 30.636z"/><path d="m159.256 507h193.488a46.053 46.053 0 0 0 46-46v-410a46.053 46.053 0 0 0 -46-46h-193.488a46.053 46.053 0 0 0 -46 46v410a46.053 46.053 0 0 0 46 46zm-34-421.628h33.027a6 6 0 0 0 0-12h-33.027v-22.372a34.038 34.038 0 0 1 34-34h193.488a34.038 34.038 0 0 1 34 34v22.372h-186.461a6 6 0 0 0 0 12h186.461v327.582h-261.488zm0 339.582h261.488v36.046a34.038 34.038 0 0 1 -34 34h-193.488a34.038 34.038 0 0 1 -34-34z"/><path d="m256 483.07a23.093 23.093 0 1 0 -23.093-23.093 23.12 23.12 0 0 0 23.093 23.093zm0-34.186a11.093 11.093 0 1 1 -11.093 11.093 11.106 11.106 0 0 1 11.093-11.093z"/><path d="m145.107 109.792a6 6 0 0 0 6-6v-2.062a6 6 0 1 0 -12 0v2.062a6 6 0 0 0 6 6z"/><path d="m145.107 205.262a6 6 0 0 0 6-6v-77.177a6 6 0 0 0 -12 0v77.177a6 6 0 0 0 6 6z"/></g></svg>