<svg id="flat" height="512" viewBox="0 0 512 512" width="512" xmlns="http://www.w3.org/2000/svg"><path d="m416 488v-136l-32-112-80-24-24-40h-48l-24 40-80 24-32 112 64 8v128z" fill="#e0edff"/><path d="m321.049 221.115-33.049 90.885h-64l-33.049-90.885 17.049-5.115 24-40h48l24 40z" fill="#548aff"/><path d="m288 312-16-88 8-16-10.667-32h-26.666l-10.667 32 8 16-16 88v176h64z" fill="#486be0"/><path d="m96 456 32 32h96l56-64-80-72z" fill="#ef5e3b"/><path d="m360 392h16v96h-16z" fill="#c8dbf7"/><path d="m160 360 32 64-32 32-64-72v-32z" fill="#e0edff"/><circle cx="168" cy="288" fill="#8098ab" r="24"/><path d="m312 56v72a56 56 0 0 1 -55.99994 56h-.00012a56 56 0 0 1 -55.99994-56v-72z" fill="#ffceb6"/><path d="m240 32h-24a16 16 0 0 0 -16 16v32l40-20z" fill="#91591c"/><path d="m256 24h32a24 24 0 0 1 24 24v24a0 0 0 0 1 0 0h-56a24 24 0 0 1 -24-24 24 24 0 0 1 24-24z" fill="#b1712c"/><circle cx="232" cy="104" fill="#91591c" r="8"/><circle cx="280" cy="104" fill="#91591c" r="8"/><path d="m248 152h-8v-16h8a8.00917 8.00917 0 0 0 8-8v-8h16v8a24.0275 24.0275 0 0 1 -24 24z" fill="#c78869"/><path d="m195.59277 449.07324-42.748-85.49512a8.00257 8.00257 0 0 1 0-7.15624l16-32 14.31054 7.15624-14.21097 28.42188 40.959 81.917z" fill="#c8dbf7"/><path d="m192 424 40 24-8 40h-32l-32-32z" fill="#ffceb6"/><path d="m336 375.11133h-16a8.00008 8.00008 0 0 1 -8-8v-19.15528h16v11.15528h8z" fill="#415769"/><path d="m352 299.02246v-67.02246a8 8 0 0 0 -16 0v67.02246a61.75527 61.75527 0 0 0 -24 48.93359h16a45.78868 45.78868 0 0 1 16-34.82714 45.78868 45.78868 0 0 1 16 34.82714h16a61.75527 61.75527 0 0 0 -24-48.93359z" fill="#556c80"/><path d="m368 375.11133h-16v-16h8v-11.15528h16v19.15528a8.00008 8.00008 0 0 1 -8 8z" fill="#415769"/><path d="m168 288a8.00039 8.00039 0 0 1 -8-8v-48a8 8 0 0 1 16 0v48a8.00039 8.00039 0 0 1 -8 8z" fill="#556c80"/></svg>